<svg id="back" xmlns="http://www.w3.org/2000/svg" width="35" height="35" viewBox="0 0 35 35">
  <rect id="Rectangle" width="35" height="35" rx="10" fill="#d2d2d2" opacity="0.2"/>
  <path id="Icon_ionic-md-arrow-round-back" data-name="Icon ionic-md-arrow-round-back" d="M6.925,12.041h9.122L12.509,8.656a1.41,1.41,0,0,1,0-1.927,1.26,1.26,0,0,1,1.841,0l5.891,5.712a1.3,1.3,0,0,1,.384.955v.017a1.3,1.3,0,0,1-.384.955L14.355,20.08a1.26,1.26,0,0,1-1.841,0,1.41,1.41,0,0,1,0-1.927l3.538-3.384H6.929a1.334,1.334,0,0,1-1.3-1.364A1.32,1.32,0,0,1,6.925,12.041Z" transform="translate(4.375 4.5)" fill="#fff"/>
</svg>
