<svg id="Personal-Info" xmlns="http://www.w3.org/2000/svg" width="35" height="35" viewBox="0 0 35 35">
  <rect id="Rectangle" width="35" height="35" rx="10" fill="#d2d2d2" opacity="0.2"/>
  <path id="Icon_ionic-md-arrow-round-back" data-name="Icon ionic-md-arrow-round-back" d="M19.325,12.041H10.2l3.538-3.384a1.41,1.41,0,0,0,0-1.927,1.26,1.26,0,0,0-1.841,0L6.009,12.441a1.3,1.3,0,0,0-.384.955v.017a1.3,1.3,0,0,0,.384.955L11.9,20.08a1.26,1.26,0,0,0,1.841,0,1.41,1.41,0,0,0,0-1.927L10.2,14.769h9.122a1.334,1.334,0,0,0,1.3-1.364A1.32,1.32,0,0,0,19.325,12.041Z" transform="translate(4.375 4.5)" fill="#fff"/>
</svg>
